<?xml version="1.0" encoding="UTF-8" standalone="no"?>
<!-- Created with Inkscape (http://www.inkscape.org/) -->

<svg
   xmlns:dc="http://purl.org/dc/elements/1.1/"
   xmlns:cc="http://creativecommons.org/ns#"
   xmlns:rdf="http://www.w3.org/1999/02/22-rdf-syntax-ns#"
   xmlns:svg="http://www.w3.org/2000/svg"
   xmlns="http://www.w3.org/2000/svg"
   xmlns:sodipodi="http://sodipodi.sourceforge.net/DTD/sodipodi-0.dtd"
   xmlns:inkscape="http://www.inkscape.org/namespaces/inkscape"
   width="200mm"
   height="200mm"
   viewBox="0 0 200 200"
   version="1.1"
   id="svg8"
   inkscape:version="0.92.1 r15371"
   sodipodi:docname="logo.svg"
   inkscape:export-filename="F:\Repos\Github\cpyvault.com\src\assets\icons\mstile-150x150.png"
   inkscape:export-xdpi="19.049999"
   inkscape:export-ydpi="19.049999">
  <defs
     id="defs2" />
  <sodipodi:namedview
     id="base"
     pagecolor="#ffffff"
     bordercolor="#666666"
     borderopacity="1.0"
     inkscape:pageopacity="0.0"
     inkscape:pageshadow="2"
     inkscape:zoom="0.35"
     inkscape:cx="82.058322"
     inkscape:cy="731.57457"
     inkscape:document-units="mm"
     inkscape:current-layer="layer1"
     showgrid="false"
     inkscape:window-width="1920"
     inkscape:window-height="1017"
     inkscape:window-x="1672"
     inkscape:window-y="-8"
     inkscape:window-maximized="1"
     fit-margin-top="0"
     fit-margin-left="11.2864"
     fit-margin-right="11.2864"
     fit-margin-bottom="0" />
  <metadata
     id="metadata5">
    <rdf:RDF>
      <cc:Work
         rdf:about="">
        <dc:format>image/svg+xml</dc:format>
        <dc:type
           rdf:resource="http://purl.org/dc/dcmitype/StillImage" />
        <dc:title></dc:title>
      </cc:Work>
    </rdf:RDF>
  </metadata>
  <g
     inkscape:label="Layer 1"
     inkscape:groupmode="layer"
     id="layer1"
     transform="translate(28.892812,-142.39572)">
    <g
       id="g3691"
       transform="matrix(0.76047441,0,0,0.76047441,-7.6664816,134.32685)">
      <path
         style="fill:#bec8e1;stroke-width:0.26458332"
         d="m 102.11027,273.52523 c -1.11994,-0.22717 -3.785751,-1.21962 -4.232672,-1.57575 -0.546817,-0.43572 -103.7232475,-59.8674 -104.8627983,-60.40306 -1.8979766,-0.89215 -4.3454077,-3.36355 -5.2318577,-5.28309 -0.864688,-1.87242 -1.216045,-123.665679 -0.367018,-127.221782 0.595727,-2.495169 3.021048,-5.316739 5.620286,-6.538526 1.1566514,-0.54369 104.311843,-59.970415 104.861584,-60.40976 2.474086,-1.977261 8.861286,-1.977261 11.335366,0 0.55328,0.442173 103.70886,59.867912 104.87314,60.415192 1.54502,0.726244 4.17764,3.180251 4.8753,4.544525 0.5599,1.09488 1.18481,56.278941 1.25793,111.084271 0.0254,19.06706 -0.40827,20.72276 -6.13323,23.41381 -1.16428,0.54728 -104.31986,59.97302 -104.87314,60.41519 -1.27013,1.01508 -5.37513,1.91352 -7.12289,1.55898 z"
         id="path3705"
         inkscape:connector-curvature="0" />
      <path
         style="fill:#95a6d0;stroke-width:0.26458332"
         d="m 100.29386,272.58903 c -0.999029,-0.34906 -1.951529,-0.74396 -2.116669,-0.87752 -0.473969,-0.3834 -103.3568599,-59.68948 -104.937445,-60.49042 -3.0508571,-1.54599 -4.931502,-3.91462 -5.694886,-7.1726 -0.525273,-2.24176 -0.347309,-122.118351 0.184965,-124.59269 0.578552,-2.689468 2.6375542,-5.161838 5.5117604,-6.618308 C -5.4633898,72.181254 88.824763,17.86932 95.892977,13.708159 c 6.395163,-3.7649255 8.949043,-3.7649866 15.345003,-3.7e-4 7.12024,4.190932 101.35946,58.475028 102.65116,59.129583 1.69916,0.861029 4.10892,3.073472 4.77972,4.38835 0.74904,1.468252 1.62146,123.822348 0.90409,126.797238 -0.81005,3.35926 -2.61325,5.6432 -5.68381,7.19917 -1.2917,0.65456 -95.53092,54.93865 -102.65116,59.12959 -4.95862,2.91861 -7.50461,3.4391 -10.94412,2.23731 z M 15.31682,146.50643 C 15.604965,146.00879 34.878804,115.83601 58.147574,79.4558 107.64241,2.0717345 102.11941,11.318539 97.215444,14.046948 77.180494,25.193756 -8.1639092,74.830024 -9.3454539,76.022718 -11.189917,77.884588 -12.230928,74.369302 1.4073524,112.33275 15.818899,152.44866 14.191397,148.45011 15.31682,146.50643 Z"
         id="path3703"
         inkscape:connector-curvature="0" />
      <path
         style="fill:#8096c7;stroke-width:0.26458332"
         d="m 100.63711,272.39072 c -0.980475,-0.35565 -24.34818,-13.67368 -53.623142,-30.5616 -28.536967,-16.4622 -52.6269173,-30.31997 -53.5332204,-30.79504 -3.2852639,-1.72209 -4.9644246,-3.7947 -5.5387066,-6.83649 -0.150147,-0.79528 -0.338538,-1.65432 -0.418647,-1.90898 -0.08011,-0.25466 -0.01857,-0.46302 0.13676,-0.46302 0.155327,0 0.284039,0.26789 0.286026,0.59531 0.0058,0.95779 0.298399,1.78594 0.630978,1.78594 0.169559,0 5.8585364,-12.48963 12.6421709,-27.75474 C 15.134795,145.13835 15.005289,152.67558 2.2381255,117.15892 -0.50816732,109.51908 -4.6125319,98.092526 -6.8826881,91.766582 -11.234822,79.639059 -11.345871,79.381992 -11.791509,80.403136 c -0.225754,0.5173 -0.254042,0.364762 -0.147388,-0.794782 0.154567,-1.680467 0.533623,-2.249572 0.756406,-1.135653 0.240618,1.203087 24.508057,68.644199 24.937492,69.303239 0.518279,0.79538 1.038619,0.5359 1.902137,-0.94854 0.392176,-0.67417 19.855737,-31.15812 43.252361,-67.742096 43.821301,-68.520908 43.123331,-67.396406 41.679421,-67.149866 -0.8599,0.146822 -0.8599,0.146822 0.0661,-0.278059 2.26585,-1.039605 5.59064,-0.462271 9.13087,1.58553 0.87161,0.504178 2.46525,1.425484 3.54142,2.047347 1.59126,0.919512 1.87433,1.176735 1.51579,1.377386 -0.49369,0.276284 -0.33829,0.74337 0.24733,0.74337 0.20969,0 0.38126,-0.178594 0.38126,-0.396875 0,-0.579817 -3.38486,-2.494778 48.47835,27.426313 26.52477,15.302753 48.88169,28.150051 49.68206,28.54955 1.83958,0.918224 3.78976,2.625791 4.61922,4.044572 0.57542,0.984234 1.66055,92.119218 1.45121,121.880598 -0.0462,6.56385 -1.68014,9.98443 -5.67356,11.87711 -0.58208,0.27588 -24.63044,14.10006 -53.44079,30.7204 -28.81036,16.62034 -52.97095,30.45077 -53.69021,30.73427 -2.12048,0.83582 -4.22018,0.88403 -6.2609,0.14377 z M -12.497654,195.07857 c 0.0966,-2.88438 0.199053,-26.74573 0.227673,-53.02522 0.03716,-34.12397 0.101584,-43.205622 0.225391,-31.77359 0.243374,22.47259 -0.02922,89.67263 -0.364595,89.87991 -0.174593,0.1079 -0.204578,-1.61423 -0.08847,-5.0811 z"
         id="path3701"
         inkscape:connector-curvature="0" />
      <path
         style="fill:#758dc2;stroke-width:0.26458332"
         d="m 101.51496,272.18268 c -0.32742,-0.12401 -0.59532,-0.36324 -0.59532,-0.53165 0,-0.20145 -0.28126,-0.24993 -0.82226,-0.14171 -1.150167,0.23003 -107.4511499,-60.96627 -109.7074173,-63.15735 -2.1092757,-2.04834 -2.8565837,0.0784 10.6613823,-30.34132 14.198401,-31.95094 12.89623,-29.15955 13.993007,-29.9961 0.748671,-0.57104 158.663608,-41.45407 166.507058,-43.10747 1.55857,-0.32854 1.65876,-0.52393 0.76506,-1.49201 -0.3432,-0.37177 -15.59954,-19.716496 -33.90297,-42.98829 -33.94247,-43.155968 -34.01766,-43.25627 -32.31884,-43.112811 0.40746,0.03441 96.5729,55.363223 99.32179,57.144818 3.56255,2.308942 3.23025,-2.728264 3.65706,55.436213 0.50257,68.49063 0.49149,72.64576 -0.19473,73.01301 -0.28885,0.15459 -0.4635,0.44183 -0.3881,0.63831 0.19817,0.51642 -0.32688,0.83541 -1.68354,1.02283 -0.65484,0.0905 -16.75717,2.48674 -35.78294,5.32504 -39.05106,5.82573 -35.20976,5.31403 -35.00304,4.66273 0.19957,-0.6288 -0.49212,-0.93907 -0.92655,-0.41561 -0.24794,0.29874 -0.22425,0.41235 0.11294,0.54174 0.74028,0.28407 0.46949,0.68773 -0.34181,0.50954 -0.97649,-0.21447 1.22712,-3.31096 -20.51963,28.83404 -21.35453,31.56524 -19.58651,29.38486 -22.83115,28.15605 z"
         id="path3699"
         inkscape:connector-curvature="0" />
      <path
         style="fill:#6b84bc;stroke-width:0.26458332"
         d="m 101.84569,271.75456 c -0.29105,-0.0747 -0.67645,-0.25545 -0.85646,-0.40158 -0.18001,-0.14611 -0.6322,-0.18913 -1.004866,-0.0956 -0.933992,0.23442 -107.4882098,-61.12805 -109.4621096,-63.03707 -1.9553324,-1.89106 -2.6480724,0.0415 10.970278,-30.6041 11.9123826,-26.80662 12.9230646,-28.95858 13.9328096,-29.66583 0.380754,-0.26669 155.004768,-40.10796 165.133878,-42.5493 2.96018,-0.71346 3.11822,-0.96029 1.65414,-2.58328 -0.56412,-0.62535 -5.00211,-6.197157 -9.86218,-12.381792 -4.86008,-6.184635 -11.88299,-15.114322 -15.60646,-19.843749 -6.46688,-8.213992 -36.52352,-46.415157 -39.73744,-50.505186 -1.61289,-2.052561 -1.74971,-2.345904 -1.19375,-2.559249 0.33225,-0.127494 98.73532,56.464627 100.22002,57.637057 2.72446,2.151438 2.86966,5.914969 2.86537,74.273209 -5.2e-4,8.65849 0.10562,17.76677 0.23591,20.24062 0.13029,2.47386 0.16546,10.33198 0.0782,17.4625 -0.0873,7.13052 -0.0603,13.28357 0.06,13.67343 0.24073,0.78026 -0.19115,1.90146 -0.67084,1.74156 -0.15722,-0.0524 -1.2125,-2.64925 -2.34507,-5.77076 -7.93741,-21.8767 -18.03484,-49.60704 -24.70711,-67.85256 -4.31049,-11.78719 -7.89585,-21.59999 -7.96745,-21.80622 -0.2631,-0.75774 -0.92457,1.03257 -19.25522,52.11517 -22.11676,61.63348 -19.65391,54.95998 -20.60284,55.82669 -0.42721,0.3902 -9.31324,13.31618 -19.74674,28.7244 -20.80018,30.71775 -19.21227,28.7116 -22.132,27.96164 z"
         id="path3697"
         inkscape:connector-curvature="0" />
      <path
         style="fill:#4967ae;stroke-width:0.26458332"
         d="M 45.408477,239.68183 C -8.9615925,208.29642 -10.20535,207.54401 -10.20535,206.03811 c 0,-0.75977 24.14924,-55.34525 24.543516,-55.47668 0.178406,-0.0595 83.766029,117.91123 84.808689,119.69404 0.391289,0.66905 -0.08238,0.39956 -53.738378,-30.57364 z M 79.885271,182.3392 C 6.0562692,144.47357 15.194649,149.21114 15.194649,148.80196 c 0,-0.65746 2.321671,-1.27168 84.545158,-22.36692 60.123403,-15.42525 83.389633,-21.49597 83.587683,-21.81004 0.35765,-0.56718 0.27949,-0.68398 -4.22347,-6.311233 -2.0373,-2.54596 -6.7357,-8.485374 -10.44091,-13.198701 -3.70521,-4.713325 -8.89261,-11.30812 -11.52757,-14.655099 -4.83402,-6.140275 -13.22466,-16.802144 -24.8727,-31.605377 -3.48704,-4.431606 -8.46101,-10.741918 -11.05327,-14.022917 -5.09133,-6.444033 -5.53921,-7.074947 -4.82899,-6.802411 0.63761,0.244673 97.13843,55.888571 98.65525,56.886177 3.62919,2.386897 3.74649,4.665962 3.59717,69.892441 -0.0193,8.44021 0.0944,17.84615 0.25266,20.90208 0.18992,3.66678 0.2201,10.45988 0.0888,19.97604 -0.10947,7.93089 -0.10547,14.69711 0.009,15.03606 0.11435,0.33895 0.0955,0.8152 -0.0418,1.05834 -0.32661,0.5781 0.0523,1.54564 -6.71791,-17.15273 -13.7891,-38.08335 -28.20923,-77.31968 -28.68477,-78.04956 -0.54781,-0.84083 1.92258,-7.466187 -20.07442,53.83779 -18.64435,51.96039 -19.53897,54.38334 -20.07312,54.36496 -0.14881,-0.005 -28.7265,-14.60387 -63.505979,-32.44166 z"
         id="path3695"
         inkscape:connector-curvature="0" />
      <path
         style="fill:#2c50a2;stroke-width:0.26458332"
         d="m 215.8918,193.59538 c -9.9756,-27.62403 -31.21673,-85.66999 -31.88048,-87.12026 -0.87967,-1.92209 -1.3568,-1.48469 16.74063,-15.346676 9.14147,-7.002036 16.71757,-12.765952 16.83577,-12.808698 0.46251,-0.167262 1.33656,119.927024 0.88135,121.096474 -0.20965,0.53858 -0.59523,-0.33226 -2.57727,-5.82084 z"
         id="path3693"
         inkscape:connector-curvature="0" />
    </g>
  </g>
</svg>
